
<svg width="92.84px" height="27.92px" viewBox="0 0 92.84 27.92" version="1.1" xmlns="http://www.w3.org/2000/svg" xmlns:xlink="http://www.w3.org/1999/xlink">
    <g id="页面-1" stroke="none" stroke-width="1" fill="none" fill-rule="evenodd">
        <g id="start-page" transform="translate(-140.2, -368.08)" fill="#000000" fill-rule="nonzero">
            <g id="编组-3" transform="translate(121.856, 225)">
                <g id="编组-2" transform="translate(1.144, 0)">
                    <g id="AIMe" transform="translate(17.2, 143.08)">
                        <path d="M17.2,27.92 L15.44,21.2 L7.8,21.2 L6.08,27.92 L0,27.92 L7.56,0 L16.04,0 L23.6,27.92 L17.2,27.92 Z M11.8,5.8 L11.48,5.8 L8.76,16.36 L14.52,16.36 L11.8,5.8 Z" id="形状"></path>
                        <polygon id="路径" points="26.8 27.92 26.8 23.48 32.8 23.48 32.8 4.44 26.8 4.44 26.8 0 44.8 0 44.8 4.44 38.8 4.44 38.8 23.48 44.8 23.48 44.8 27.92"></polygon>
                        <polygon id="路径" points="65.04 15.48 65.36 7.68 65 7.68 59.8 22.04 54.6 7.68 54.24 7.68 54.56 15.48 54.56 27.92 49.36 27.92 49.36 0 56.44 0 59.88 9.4 60.2 9.4 63.64 0 70.24 0 70.24 27.92 65.04 27.92"></polygon>
                        <polygon id="路径" points="75 27.92 75 0 92.84 0 92.84 4.92 81 4.92 81 11.32 92.44 11.32 92.44 16.24 81 16.24 81 23 92.84 23 92.84 27.92"></polygon>
                    </g>
                </g>
            </g>
        </g>
    </g>
</svg>