
<svg width="20px" height="20px" viewBox="0 0 20 20" version="1.1" xmlns="http://www.w3.org/2000/svg" xmlns:xlink="http://www.w3.org/1999/xlink">
    <g id="页面-1" stroke="none" stroke-width="1" fill="none" fill-rule="evenodd">
        <g id="chat-3" transform="translate(-191, -196)">
            <g id="编组-13" transform="translate(181, 151)">
                <g id="编组-7" transform="translate(10, 45)">
                    <circle id="椭圆形备份" fill="#E9FD52" cx="10" cy="10" r="10"></circle>
                    <path d="M10.0000771,6 C8.06082652,6 6,6.67083896 6,7.91303756 L6,11.8434181 C6,13.0125695 7.83167978,14 10.0000771,14 C12.1680119,14 14,13.0125695 14,11.8434181 L14,7.91303756 C14,6.67083896 11.9388296,6 10.0000771,6 L10.0000771,6 Z M13.1408203,7.93043747 C13.1408203,8.43173518 12.0651253,9.13043747 10.0000771,9.13043747 C7.93487468,9.13043747 6.8659668,8.43173518 6.8659668,7.93043747 C6.8659668,7.42946914 7.93819114,6.80654297 10.0033936,6.80654297 C12.0684418,6.80654297 13.1408203,7.42946914 13.1408203,7.93043747 Z M10.0000771,13.1329102 C7.99604215,13.1329102 6.89873047,12.4249249 6.89873047,11.8434181 L6.89873047,11.0989258 C7.61565158,11.6624275 8.60930586,11.9274414 10.0000771,11.9274414 C11.3903502,11.9274414 12.4070828,11.6624275 13.1241699,11.0989258 L13.1241699,11.8434181 C13.1241699,12.4249249 12.0039579,13.1329102 10.0000771,13.1329102 Z M10,11.0933105 C8.122581,11.0933105 6.8940918,10.4697766 6.8940918,9.82640923 L6.8940918,9.24428711 C7.65789057,9.78437615 8.73897543,10 10,10 C11.2607162,10 12.3709724,9.78436377 13.1349609,9.24428711 L13.1349609,9.82640923 C13.1349609,10.4697642 11.8769328,11.0933105 10,11.0933105 Z" id="形状" fill="#000000" fill-rule="nonzero"></path>
                </g>
            </g>
        </g>
    </g>
</svg>
