
<svg width="24.0416306px" height="24.0416306px" viewBox="0 0 24.0416306 24.0416306" version="1.1" xmlns="http://www.w3.org/2000/svg" xmlns:xlink="http://www.w3.org/1999/xlink">
    <g id="页面-1" stroke="none" stroke-width="1" fill="none" fill-rule="evenodd">
        <g id="buy-power" transform="translate(-336.4792, -522.4792)" fill="#000000">
            <path d="M348.501472,526 C348.970101,526 349.35,526.379899 349.35,526.848528 L349.35,533.649 L356.151472,533.65 C356.620101,533.65 357,534.029899 357,534.498528 C357,534.970101 356.620101,535.35 356.151472,535.35 L349.35,535.349 L349.35,542.151472 C349.35,542.620101 348.970101,543 348.501472,543 C348.029899,543 347.65,542.620101 347.65,542.151472 L347.65,535.349 L340.848528,535.35 C340.379899,535.35 340,534.970101 340,534.501472 C340,534.029899 340.379899,533.65 340.848528,533.65 L347.65,533.649 L347.65,526.848528 C347.65,526.379899 348.029899,526 348.498528,526 Z" id="形状结合" transform="translate(348.5, 534.5) rotate(-315) translate(-348.5, -534.5)"></path>
        </g>
    </g>
</svg>
