
<svg width="20px" height="20px" viewBox="0 0 20 20" version="1.1" xmlns="http://www.w3.org/2000/svg" xmlns:xlink="http://www.w3.org/1999/xlink">
    <g id="页面-1" stroke="none" stroke-width="1" fill="none" fill-rule="evenodd">
        <g id="chat-3" transform="translate(-191, -256)">
            <g id="编组-13" transform="translate(181, 151)">
                <g id="编组-8" transform="translate(10, 105)">
                    <circle id="椭圆形备份-2" fill="#E9FD52" cx="10" cy="10" r="10"></circle>
                    <path d="M13.5202072,11.2878581 C13.4597614,11.5204638 13.3842042,11.7380628 13.2708684,11.925648 L13.2482013,11.9631651 C12.7344123,12.9461119 11.7748359,13.6439291 10.664145,13.8390177 L10.664145,15.0395634 C10.664145,15.2196453 10.7850365,15.3697135 10.9663738,15.4222374 L12.0619532,15.6248295 C12.2886248,15.6623465 12.2508462,16 12.0241746,16 L7.98186443,16 C7.75519283,16 7.72496995,15.6698499 7.94408583,15.6248295 L9.03966523,15.4222374 C9.22100252,15.3847203 9.34189404,15.2196453 9.34189402,15.0395634 L9.34189402,13.8390177 C8.21609175,13.6289222 7.2565153,12.9236016 6.72761492,11.9181446 C6.62183484,11.7230559 6.53872191,11.4979536 6.47827616,11.2803547 C5.09557939,11.1603001 4,10.0122783 4,8.60914052 L4,7.36357436 C4,7.07094134 4.24178304,6.84583902 4.5289004,6.84583902 L6.3422732,6.84583902 L6.3422732,5.32264666 C6.3422732,5.24761256 6.3800518,5.15757163 6.44049755,5.09754434 C6.50094332,5.03001365 6.57650052,5 6.66716915,5 L13.3388699,5 C13.5277629,5 13.6788773,5.15006821 13.6788773,5.33015006 L13.6788773,6.83833561 L15.4846944,6.83833561 C15.7869232,6.83833561 16.0211505,7.06343793 15.9984833,7.35607095 L15.9984833,8.61664393 C16.0060391,10.0197817 14.9104597,11.1678035 13.5202072,11.2878581 Z M6.33471748,10.2523874 L6.33471748,7.76098633 L4.98232077,7.76098633 C4.95209788,7.76098633 4.921875,7.79099997 4.921875,7.82101362 L4.921875,8.67667121 C4.921875,9.62960437 5.45069823,10.2401827 6.36494036,10.3827475 C6.3422732,10.2101691 6.33471748,10.0826111 6.33471748,10.0826111 L6.33471748,10.2523874 Z M12.8326367,7.6787176 L12.8326367,5.83287859 L7.18851383,5.83287859 L7.18851383,7.6787176 L7.18095811,10.4249659 C7.18851383,10.4774898 7.19606955,10.5900409 7.21873671,10.7326057 L7.22629243,10.7776262 L7.30940535,11.0702592 C7.37740682,11.3103683 7.43785259,11.4454297 7.47563119,11.5204638 L7.48318691,11.5354707 L7.49074263,11.5504775 C7.89875152,12.3308322 8.63165635,12.8710778 9.50811987,13.0361528 L9.99924166,13.1261937 L10.5281421,13.0361528 C11.366827,12.8860846 12.1072875,12.3533424 12.5077407,11.6030014 L12.5379636,11.5429741 L12.553075,11.5129604 C12.6059651,11.4229195 12.6588551,11.2878581 12.7041894,11.1002728 L12.8326367,10.5900409 C12.8401924,10.5300136 12.8401924,10.4924966 12.8401924,10.4699864 L12.8326367,7.6787176 L12.8326367,7.6787176 Z M15.0944772,7.83535767 C15.0944772,7.80534402 15.0642543,7.77533038 15.0340314,7.77533038 L13.6939887,7.77533038 L13.7242116,9.97468963 C13.7242116,9.97468963 13.7166559,10.1022476 13.6939887,10.274826 C14.6006751,10.1397647 15.1020329,9.63710777 15.1095886,8.67667121 L15.0944772,7.83535767 Z M11.0268196,9.26193725 L11.177934,10.1698499 C11.230824,10.4849932 11.0570425,10.5975443 10.800148,10.4549795 L10.0219088,9.99727149 L9.24366967,10.4249659 C8.97921947,10.5750341 8.81299362,10.4399727 8.86588367,10.1398363 L9.00188663,9.2319236 L8.37476187,8.5941337 C8.155646,8.39154162 8.22364747,8.16643929 8.51832055,8.12892224 L9.38722835,8.00886766 L9.76501435,7.22851297 C9.88590586,6.94338336 10.097466,6.94338336 10.2485804,7.22851297 L10.6263664,8.0313779 L11.4952742,8.15143246 C11.7899473,8.20395634 11.8655045,8.42155525 11.6463886,8.63165076 L11.0268196,9.26193725 Z" id="形状" fill="#000000" fill-rule="nonzero"></path>
                </g>
            </g>
        </g>
    </g>
</svg>