
<svg width="20px" height="20px" viewBox="0 0 20 20" version="1.1" xmlns="http://www.w3.org/2000/svg" xmlns:xlink="http://www.w3.org/1999/xlink">
    <g id="页面-1" stroke="none" stroke-width="1" fill="none" fill-rule="evenodd">
        <g id="chat-3" transform="translate(-191, -226)">
            <g id="编组-13" transform="translate(181, 151)">
                <g id="编组-7" transform="translate(10, 75)">
                    <circle id="椭圆形备份" fill="#E9FD52" cx="10" cy="10" r="10"></circle>
                    <g id="编组" transform="translate(4, 3)" fill="#000000" fill-rule="nonzero">
                        <path d="M5.96172579,2.58393258 C4.92205475,2.58393258 3.94462252,3.00168539 3.20907295,3.76123596 C2.47352337,4.52078652 2.0689711,5.53011236 2.0689711,6.60370787 C2.0689711,7.67730337 2.47352337,8.68662921 3.20907295,9.44617978 C3.94462252,10.2057303 4.92205475,10.6234831 5.96172579,10.6234831 C7.00139682,10.6234831 7.97882905,10.2057303 8.71437862,9.44617978 C9.4499282,8.68662921 9.85448047,7.67730337 9.85448047,6.60370787 C9.85448047,5.53011236 9.4499282,4.52078652 8.71437862,3.76123596 C7.97882905,3.00168539 7.00139682,2.58393258 5.96172579,2.58393258 Z M5.96172579,9.62876404 C4.34634575,9.62876404 3.03084363,8.27179775 3.03084363,6.60224719 C3.03084363,4.93269663 4.34493124,3.57573034 5.96172579,3.57573034 C7.57710582,3.57573034 8.89260795,4.93269663 8.89260795,6.60224719 C8.89260795,8.27179775 7.57852034,9.62876404 5.96172579,9.62876404 Z M7.72421573,10.8177528 L4.19923584,10.8177528 C3.93330638,10.8177528 3.71829958,11.0397753 3.71829958,11.314382 C3.71829958,11.5889888 3.93330638,11.8110112 4.19923584,11.8110112 L7.72421573,11.8110112 C7.9901452,11.8110112 8.20515199,11.5889888 8.20515199,11.314382 C8.20515199,11.0397753 7.9901452,10.8177528 7.72421573,10.8177528 Z M7.01978556,12.0067416 L4.90508053,12.0067416 C4.63915107,12.0067416 4.42414427,12.228764 4.42414427,12.5033708 C4.42414427,12.7779775 4.63915107,13 4.90508053,13 L7.01978556,13 C7.28571502,13 7.50072182,12.7779775 7.50072182,12.5033708 C7.50072182,12.228764 7.28571502,12.0067416 7.01978556,12.0067416 Z M5.96172579,2.40280899 C6.22765525,2.40280899 6.44266205,2.18078652 6.44266205,1.90617978 L6.44266205,0.496629213 C6.44266205,0.222022472 6.22765525,0 5.96172579,0 C5.69579632,0 5.48078952,0.222022472 5.48078952,0.496629213 L5.48078952,1.90617978 C5.48078952,2.17932584 5.69579632,2.40280899 5.96172579,2.40280899 Z M8.62102041,3.12438202 C8.704477,3.18573034 8.80066425,3.21494382 8.8968515,3.21494382 C9.04820497,3.21494382 9.19814392,3.14044944 9.29150214,3.00314607 L10.0737308,1.84921348 C10.2264988,1.62426966 10.1727471,1.31460674 9.95632579,1.15685393 C9.73848996,0.999101124 9.43861205,1.05460674 9.28584407,1.27808989 L8.50361538,2.43202247 C8.35084739,2.65696629 8.40318457,2.96662921 8.62102041,3.12438202 Z M11.9691855,4.30314607 C11.8758273,4.04606742 11.5985817,3.91606742 11.3496264,4.01247191 L10.0709018,4.50617978 C9.82194654,4.60258427 9.69605441,4.8888764 9.78941262,5.14595506 C9.86155306,5.34606742 10.0454405,5.46876404 10.240644,5.46876404 C10.2972247,5.46876404 10.3538055,5.45853933 10.4089717,5.43662921 L11.6876963,4.94292135 C11.9366516,4.84651685 12.0625437,4.56022472 11.9691855,4.30314607 L11.9691855,4.30314607 Z M2.70974795,2.76797753 C2.80310616,2.9052809 2.95304511,2.97977528 3.10439858,2.97977528 C3.19917132,2.97977528 3.29535857,2.9505618 3.38022968,2.88921348 C3.59806551,2.73146067 3.65040269,2.42179775 3.4976347,2.19685393 L2.71540602,1.04292135 C2.56263803,0.817977528 2.26276013,0.763932584 2.04492429,0.921685393 C1.82708845,1.0794382 1.77475127,1.38910112 1.92751926,1.61404494 L2.70974795,2.76797753 L2.70974795,2.76797753 Z M2.21042295,4.90932584 C2.30378116,4.65224719 2.1764745,4.36595506 1.92893378,4.26955056 L0.650209132,3.7758427 C0.401253891,3.6794382 0.124008281,3.81089888 0.0306500654,4.06651685 C-0.0627081501,4.32359551 0.0645985074,4.60988764 0.31213923,4.70629213 L1.59086388,5.2 C1.6460301,5.22191011 1.70261083,5.23213483 1.75919157,5.23213483 C1.95439511,5.23213483 2.13828251,5.1094382 2.21042295,4.90932584 L2.21042295,4.90932584 Z" id="形状"></path>
                    </g>
                </g>
            </g>
        </g>
    </g>
</svg>