
<svg width="20px" height="20px" viewBox="0 0 20 20" version="1.1" xmlns="http://www.w3.org/2000/svg" xmlns:xlink="http://www.w3.org/1999/xlink">
    <g id="页面-1" stroke="none" stroke-width="1" fill="none" fill-rule="evenodd">
        <g id="chat-3" transform="translate(-191, -286)">
            <g id="编组-13" transform="translate(181, 151)">
                <g id="编组-8" transform="translate(10, 135)">
                    <circle id="椭圆形备份-2" fill="#E9FD52" cx="10" cy="10" r="10"></circle>
                    <path d="M13,7 L14.5,7 C14.7761424,7 15,7.22385762 15,7.5 L15,13.5 C15,13.7761424 14.7761424,14 14.5,14 L5.5,14 C5.22385763,14 5,13.7761424 5,13.5 L5,5.5 C5,5.22385763 5.22385763,5 5.5,5 L12.5,5 C12.7761424,5 13,5.22385763 13,5.5 L13,7 Z M6.00000001,8 L6.00000001,13 L14,13 L14,8 L6.00000001,8 Z M6.00000001,6 L6.00000001,7 L12,7 L12,6 L6.00000001,6 Z M11.5,10 L12.5,10 C12.7761125,10.0000423 12.9999235,10.2238875 12.9999235,10.5 C12.9999235,10.7761125 12.7761125,10.9999577 12.5,11 L11.5,11 C11.2238875,10.9999577 11.0000765,10.7761125 11.0000765,10.5 C11.0000765,10.2238875 11.2238875,10.0000423 11.5,10 L11.5,10 Z" id="形状" fill="#000000" fill-rule="nonzero"></path>
                </g>
            </g>
        </g>
    </g>
</svg>