
<svg width="17.159309px" height="15.7142857px" viewBox="0 0 17.159309 15.7142857" version="1.1" xmlns="http://www.w3.org/2000/svg" xmlns:xlink="http://www.w3.org/1999/xlink">
    <g id="页面-1" stroke="none" stroke-width="1" fill="none" fill-rule="evenodd">
        <g id="chat-1" transform="translate(-82, -725)" fill="#FFFFFF" fill-rule="nonzero">
            <g id="编组-3" transform="translate(28, 703)">
                <g id="编组-4" transform="translate(54, 21)">
                    <path d="M13.7274472,4.4920635 L16.3013436,4.4920635 C16.7751848,4.4920635 17.159309,4.88292601 17.159309,5.36507936 L17.159309,15.8412698 C17.159309,16.3234232 16.7751848,16.7142857 16.3013436,16.7142857 L0.857965457,16.7142857 C0.384124219,16.7142857 0,16.3234232 0,15.8412698 L0,1.87301588 C0,1.39086252 0.384124219,1 0.857965457,1 L12.8694818,1 C13.343323,1 13.7274472,1.39086252 13.7274472,1.87301588 L13.7274472,4.4920635 Z M1.71593091,6.23809524 L1.71593091,14.968254 L15.4433781,14.968254 L15.4433781,6.23809524 L1.71593091,6.23809524 Z M1.71593091,2.74603174 L1.71593091,4.4920635 L12.0115163,4.4920635 L12.0115163,2.74603174 L1.71593091,2.74603174 Z M11.1535509,9.73015874 L12.8694818,9.73015874 C13.3432717,9.73023254 13.7273159,10.1210734 13.7273159,10.6031746 C13.7273159,11.0852758 13.3432717,11.4761167 12.8694818,11.4761905 L11.1535509,11.4761905 C10.6797609,11.4761167 10.2957168,11.0852758 10.2957168,10.6031746 C10.2957168,10.1210734 10.6797609,9.73023254 11.1535509,9.73015874 L11.1535509,9.73015874 Z" id="形状"></path>
                </g>
            </g>
        </g>
    </g>
</svg>
