<svg xmlns="http://www.w3.org/2000/svg" viewBox="0 0 10 10" fill="none">
  <path fill-rule="evenodd" clip-rule="evenodd"
    d="M5.0001 0C2.23857 0 4.89866e-06 2.23857 4.89866e-06 5.0001C-0.00172366 6.23327 0.454064 7.42324 1.27916 8.33972L0.375454 9.72656C0.375765 9.79782 0.404344 9.86604 0.454915 9.91625C0.505486 9.96645 0.573914 9.99453 0.645172 9.99432H4.76079C4.84003 9.99805 4.91987 10.0002 5.0001 10.0002C7.76143 10.0002 10 7.76164 10 5.0001C10 2.23857 7.76163 0 5.0001 0ZM2.22017 5.38369C2.09068 5.2542 2.01793 5.07857 2.01793 4.89544C2.01793 4.71231 2.09068 4.53669 2.22017 4.4072C2.34966 4.27771 2.52528 4.20496 2.70841 4.20496C2.89154 4.20496 3.06716 4.27771 3.19665 4.4072C3.32614 4.53669 3.39889 4.71231 3.39889 4.89544C3.39889 5.07857 3.32614 5.2542 3.19665 5.38369C3.06716 5.51318 2.89154 5.58592 2.70841 5.58592C2.52528 5.58592 2.34966 5.51318 2.22017 5.38369ZM4.38164 4.89544C4.38164 5.07857 4.45439 5.2542 4.58388 5.38369C4.71337 5.51318 4.88899 5.58592 5.07212 5.58592C5.25525 5.58592 5.43087 5.51318 5.56036 5.38369C5.68985 5.2542 5.7626 5.07857 5.7626 4.89544C5.7626 4.80477 5.74474 4.71498 5.71004 4.63121C5.67534 4.54743 5.62448 4.47131 5.56036 4.4072C5.49625 4.34308 5.42013 4.29222 5.33635 4.25752C5.25258 4.22282 5.16279 4.20496 5.07212 4.20496C4.98144 4.20496 4.89166 4.22282 4.80788 4.25752C4.72411 4.29222 4.64799 4.34308 4.58388 4.4072C4.51976 4.47131 4.4689 4.54743 4.4342 4.63121C4.3995 4.71498 4.38164 4.80477 4.38164 4.89544ZM6.94759 5.38369C6.8181 5.2542 6.74535 5.07857 6.74535 4.89544C6.74535 4.71231 6.8181 4.53669 6.94759 4.4072C7.07708 4.27771 7.2527 4.20496 7.43583 4.20496C7.61896 4.20496 7.79458 4.27771 7.92407 4.4072C8.05356 4.53669 8.12631 4.71231 8.12631 4.89544C8.12631 5.07857 8.05356 5.2542 7.92407 5.38369C7.79458 5.51318 7.61896 5.58592 7.43583 5.58592C7.2527 5.58592 7.07708 5.51318 6.94759 5.38369Z"
    fill="#CCCCCC" />
</svg>