<svg viewBox="0 0 12 12" fill="none" xmlns="http://www.w3.org/2000/svg">
  <g id="Group 237">
    <path id="Vector"
      d="M0 6C-1.17411e-08 6.78793 0.155195 7.56815 0.456723 8.2961C0.758251 9.02405 1.20021 9.68549 1.75736 10.2426C2.31451 10.7998 2.97595 11.2417 3.7039 11.5433C4.43185 11.8448 5.21207 12 6 12C6.78793 12 7.56815 11.8448 8.2961 11.5433C9.02405 11.2417 9.68549 10.7998 10.2426 10.2426C10.7998 9.68549 11.2417 9.02405 11.5433 8.2961C11.8448 7.56815 12 6.78793 12 6C12 5.21207 11.8448 4.43185 11.5433 3.7039C11.2417 2.97595 10.7998 2.31451 10.2426 1.75736C9.68549 1.20021 9.02405 0.758251 8.2961 0.456723C7.56815 0.155195 6.78793 0 6 0C5.21207 0 4.43185 0.155195 3.7039 0.456723C2.97595 0.758251 2.31451 1.20021 1.75736 1.75736C1.20021 2.31451 0.758251 2.97595 0.456723 3.7039C0.155195 4.43185 -1.17411e-08 5.21207 0 6Z"
      fill="#DCEDFF" />
    <path id="Vector_2"
      d="M10.2776 6.76243C10.2776 5.28008 9.07665 4.08008 7.59529 4.08008C6.11392 4.08008 4.91293 5.28008 4.91293 6.76243C4.91293 8.24478 6.11392 9.44478 7.59529 9.44478C7.63764 9.44478 7.68112 9.44366 7.72362 9.44168H9.93147C9.96969 9.44179 10.0064 9.42674 10.0335 9.39982C10.0607 9.3729 10.076 9.33632 10.0762 9.2981L9.59138 8.5541C10.034 8.06241 10.2785 7.42401 10.2776 6.76243Z"
      fill="#88C4FF" />
    <path id="Vector_3"
      d="M2.16605 5.47554C2.16605 3.48806 3.77716 1.87695 5.76464 1.87695C7.75212 1.87695 9.36308 3.48806 9.36308 5.47554C9.36308 7.46302 7.75198 9.07413 5.76464 9.07413C5.7069 9.07413 5.64944 9.07258 5.5924 9.06989H2.63038C2.57909 9.07004 2.52985 9.04984 2.49345 9.0137C2.45705 8.97757 2.43649 8.92847 2.43626 8.87719L3.08666 7.87907C2.49284 7.21948 2.16481 6.36306 2.16605 5.47554Z"
      fill="#468EF7" />
    <path id="Vector_4"
      d="M3.61835 5.40026C3.61835 5.53206 3.6707 5.65846 3.7639 5.75165C3.85709 5.84485 3.98349 5.8972 4.11529 5.8972C4.24709 5.8972 4.37348 5.84485 4.46668 5.75165C4.55987 5.65846 4.61223 5.53206 4.61223 5.40026C4.61223 5.26846 4.55987 5.14207 4.46668 5.04887C4.37348 4.95568 4.24709 4.90332 4.11529 4.90332C3.98349 4.90332 3.85709 4.95568 3.7639 5.04887C3.6707 5.14207 3.61835 5.26846 3.61835 5.40026Z"
      fill="#88C4FF" />
    <path id="Vector_5"
      d="M5.31952 5.40026C5.31952 5.53206 5.37188 5.65846 5.46507 5.75165C5.55826 5.84485 5.68466 5.8972 5.81646 5.8972C5.94826 5.8972 6.07466 5.84485 6.16785 5.75165C6.26105 5.65846 6.3134 5.53206 6.3134 5.40026C6.3134 5.335 6.30055 5.27038 6.27557 5.21009C6.2506 5.1498 6.214 5.09502 6.16785 5.04887C6.12171 5.00273 6.06692 4.96612 6.00663 4.94115C5.94634 4.91617 5.88172 4.90332 5.81646 4.90332C5.7512 4.90332 5.68658 4.91617 5.62629 4.94115C5.566 4.96612 5.51122 5.00273 5.46507 5.04887C5.41892 5.09502 5.38232 5.1498 5.35735 5.21009C5.33237 5.27038 5.31952 5.335 5.31952 5.40026Z"
      fill="#88C4FF" />
    <path id="Vector_6"
      d="M7.02069 5.40026C7.02069 5.53206 7.07305 5.65846 7.16624 5.75165C7.25944 5.84485 7.38584 5.8972 7.51763 5.8972C7.64943 5.8972 7.77583 5.84485 7.86902 5.75165C7.96222 5.65846 8.01457 5.53206 8.01457 5.40026C8.01457 5.26846 7.96222 5.14207 7.86902 5.04887C7.77583 4.95568 7.64943 4.90332 7.51763 4.90332C7.38584 4.90332 7.25944 4.95568 7.16624 5.04887C7.07305 5.14207 7.02069 5.26846 7.02069 5.40026Z"
      fill="#88C4FF" />
  </g>
</svg>