<svg xmlns="http://www.w3.org/2000/svg" width="230" height="20" viewBox="0 0 230 20" fill="none">
  <g filter="url(#filter0_b_1200_43)">
    <circle cx="10" cy="10" r="10" fill="black" />
  </g>
  <path
    d="M14.25 9.56699C14.5833 9.75944 14.5833 10.2406 14.25 10.433L8.25 13.8971C7.91667 14.0896 7.5 13.849 7.5 13.4641L7.5 6.5359C7.5 6.151 7.91667 5.91044 8.25 6.10289L14.25 9.56699Z"
    fill="white" />
  <path
    d="M141.485 6.81823H143.197V13.6364H141.485L141.485 6.81823ZM172.121 6.81823H173.833V13.6364H172.121V6.81823ZM197.652 6.81823H199.364V13.6364H197.652V6.81823ZM228.288 6.81823H230V13.6364H228.288V6.81823ZM177.227 5.00003H178.939V14.5455H177.227V5.00003ZM192.546 4.09095H194.258V15.4546H192.546V4.09095ZM182.333 7.27274H184.046V12.7273H182.333V7.27274ZM187.439 6.36363H189.152V14.0909H187.439V6.36363ZM136.379 4.09095H138.091V15.4546H136.379V4.09095ZM131.273 7.27274H132.985V12.7273H131.273V7.27274ZM146.591 5.00003H148.303V15.0001H146.591V5.00003ZM167.015 5.00003H168.727V15.0001H167.015V5.00003ZM202.758 5.00003H204.47V15.4546H202.758V5.00003ZM223.182 5.00003H224.894V15.0001H223.182V5.00003ZM151.697 4.09095H153.409V15.9091H151.697V4.09095ZM161.909 3.6364H163.621V16.8182H161.909V3.6364ZM207.864 3.18186H209.576V16.8183H207.864V3.18186ZM218.076 3.18186H219.788V16.8183H218.076V3.18186ZM156.803 0H158.515V20H156.803L156.803 0ZM212.97 0.909116H214.682V19.091H212.97V0.909116ZM40.2121 6.81823H41.9243V13.6364H40.2121L40.2121 6.81823ZM70.8484 6.81823H72.5605V13.6364H70.8484V6.81823ZM96.3786 6.81823H98.0907V13.6364H96.3786V6.81823ZM127.015 6.81823H128.727V13.6364H127.015V6.81823ZM75.9544 5.00003H77.6666V14.5455H75.9544V5.00003ZM91.2726 4.09095H92.9847V15.4546H91.2726V4.09095ZM81.0605 7.27274H82.7727V12.7273H81.0605V7.27274ZM86.1665 6.36363H87.8786V14.0909H86.1665V6.36363ZM35.1061 4.09095H36.8182V15.4546H35.1061V4.09095ZM30 7.27274H31.7121V12.7273H30V7.27274ZM45.3181 5.00003H47.0303V15.0001H45.3181V5.00003ZM65.7424 5.00003H67.4545V15.0001H65.7424V5.00003ZM101.485 5.00003H103.197V15.4546H101.485V5.00003ZM121.909 5.00003H123.621V15.0001H121.909V5.00003ZM50.4242 4.09095H52.1364V15.9091H50.4242V4.09095ZM60.6363 3.6364H62.3484V16.8182H60.6363V3.6364ZM106.591 3.18186H108.303V16.8183H106.591V3.18186ZM116.803 3.18186H118.515V16.8183H116.803V3.18186ZM55.5302 0H57.2424V20H55.5303L55.5302 0ZM111.697 0.909116H113.409V19.091H111.697V0.909116Z"
    fill="black" fill-opacity="0.2" />
  <defs>
    <filter id="filter0_b_1200_43" x="-4.44444" y="-4.44444" width="28.8889" height="28.8889"
      filterUnits="userSpaceOnUse" color-interpolation-filters="sRGB">
      <feFlood flood-opacity="0" result="BackgroundImageFix" />
      <feGaussianBlur in="BackgroundImageFix" stdDeviation="2.22222" />
      <feComposite in2="SourceAlpha" operator="in" result="effect1_backgroundBlur_1200_43" />
      <feBlend mode="normal" in="SourceGraphic" in2="effect1_backgroundBlur_1200_43" result="shape" />
    </filter>
  </defs>
</svg>