<svg viewBox="0 0 16 16" fill="none" xmlns="http://www.w3.org/2000/svg">
  <g id="Group 221">
    <circle id="Ellipse 91" cx="8" cy="8" r="4" fill="white" />
    <path id="Vector"
      d="M8 0C8.40893 0 8.81789 0.156005 9.1298 0.467977L10.5715 1.90977H12.5616C13.4441 1.90977 14.1594 2.62513 14.1594 3.50755V5.49766L15.532 6.87021C16.156 7.49418 16.156 8.50584 15.532 9.12982L14.1594 10.5024V12.5617C14.1594 13.4441 13.4441 14.1594 12.5616 14.1594H10.5024L9.12982 15.532C8.81787 15.844 8.40893 16 8 16C7.59103 16 7.1821 15.844 6.87018 15.532L5.4976 14.1594H3.50753C2.62515 14.1594 1.90975 13.4441 1.90975 12.5617V10.5716L0.468014 9.12982C-0.156005 8.50586 -0.156005 7.4942 0.468014 6.87021L1.90973 5.42842V3.50757C1.90973 2.62517 2.62515 1.90979 3.50751 1.90979H5.42844L6.87016 0.467995C7.18211 0.156023 7.59103 0 7.99996 0H8ZM10.961 6.34852C10.745 6.13253 10.3948 6.13253 10.1788 6.34852L7.53876 8.98856L6.40044 7.88931C6.18292 7.67924 5.83758 7.68313 5.62482 7.89643L5.6184 7.90296L5.61822 7.90315C5.40606 8.12286 5.41216 8.47299 5.63189 8.68517L7.13197 10.1338C7.20219 10.2018 7.28925 10.2499 7.38421 10.2731C7.57699 10.338 7.79842 10.2936 7.952 10.14L10.9611 7.13086C11.1771 6.91487 11.1771 6.56468 10.9611 6.34871L10.961 6.34852Z"
      fill="#38ACFF" />
  </g>
</svg>