<svg viewBox="0 0 132.288 15.168" version="1.1"
    xmlns="http://www.w3.org/2000/svg" xmlns:xlink="http://www.w3.org/1999/xlink">
    <g stroke="none" stroke-width="1" fill="none" fill-rule="evenodd"
        opacity="0.696079799">
        <g transform="translate(-121.856, -410.032)" fill="#000000"
            fill-rule="nonzero">
            <g transform="translate(121.856, 225)">
                <g transform="translate(0, 185.032)">
                    <path
                        d="M6.864,11.968 C6.36266667,11.968 6.00533333,11.84 5.792,11.584 C5.57866667,11.328 5.44533333,11.008 5.392,10.624 L5.312,10.624 C5.13066667,11.104 4.84,11.48 4.44,11.752 C4.04,12.024 3.504,12.16 2.832,12.16 C1.968,12.16 1.28,11.936 0.768,11.488 C0.256,11.04 0,10.4266667 0,9.648 C0,8.88 0.28,8.288 0.84,7.872 C1.4,7.456 2.304,7.248 3.552,7.248 L5.312,7.248 L5.312,6.432 C5.312,5.824 5.14133333,5.368 4.8,5.064 C4.45866667,4.76 3.97333333,4.608 3.344,4.608 C2.78933333,4.608 2.336,4.71733333 1.984,4.936 C1.632,5.15466667 1.34933333,5.45066667 1.136,5.824 L0.272,5.184 C0.378666667,4.97066667 0.522666667,4.76266667 0.704,4.56 C0.885333333,4.35733333 1.10933333,4.17866667 1.376,4.024 C1.64266667,3.86933333 1.94666667,3.74666667 2.288,3.656 C2.62933333,3.56533333 3.008,3.52 3.424,3.52 C4.39466667,3.52 5.16533333,3.76533333 5.736,4.256 C6.30666667,4.74666667 6.592,5.42933333 6.592,6.304 L6.592,10.848 L7.744,10.848 L7.744,11.968 L6.864,11.968 Z M3.056,11.088 C3.38666667,11.088 3.688,11.048 3.96,10.968 C4.232,10.888 4.46933333,10.7813333 4.672,10.648 C4.87466667,10.5146667 5.032,10.3546667 5.144,10.168 C5.256,9.98133333 5.312,9.78133333 5.312,9.568 L5.312,8.208 L3.552,8.208 C2.784,8.208 2.224,8.31466667 1.872,8.528 C1.52,8.74133333 1.344,9.05066667 1.344,9.456 L1.344,9.792 C1.344,10.2186667 1.496,10.5413333 1.8,10.76 C2.104,10.9786667 2.52266667,11.088 3.056,11.088 Z"
                    ></path>
                    <path
                        d="M13.856,1.888 C13.4826667,1.888 13.2213333,1.81066667 13.072,1.656 C12.9226667,1.50133333 12.848,1.30666667 12.848,1.072 L12.848,0.816 C12.848,0.581333333 12.9226667,0.386666667 13.072,0.232 C13.2213333,0.0773333333 13.4826667,5.68434189e-14 13.856,5.68434189e-14 C14.2293333,5.68434189e-14 14.4906667,0.0773333333 14.64,0.232 C14.7893333,0.386666667 14.864,0.581333333 14.864,0.816 L14.864,1.072 C14.864,1.30666667 14.7893333,1.50133333 14.64,1.656 C14.4906667,1.81066667 14.2293333,1.888 13.856,1.888 Z M10.24,10.88 L13.216,10.88 L13.216,4.8 L10.24,4.8 L10.24,3.712 L14.496,3.712 L14.496,10.88 L17.28,10.88 L17.28,11.968 L10.24,11.968 L10.24,10.88 Z"
                    ></path>
                    <path
                        d="M19.008,11.968 L19.008,3.712 L20.192,3.712 L20.192,4.672 L20.256,4.672 C20.384,4.352 20.5653333,4.08 20.8,3.856 C21.0346667,3.632 21.3813333,3.52 21.84,3.52 C22.32,3.52 22.6773333,3.64 22.912,3.88 C23.1466667,4.12 23.2906667,4.432 23.344,4.816 L23.392,4.816 C23.5413333,4.44266667 23.7546667,4.13333333 24.032,3.888 C24.3093333,3.64266667 24.6933333,3.52 25.184,3.52 C25.856,3.52 26.3066667,3.75466667 26.536,4.224 C26.7653333,4.69333333 26.88,5.36533333 26.88,6.24 L26.88,11.968 L25.696,11.968 L25.696,6.448 C25.696,5.744 25.624,5.256 25.48,4.984 C25.336,4.712 25.072,4.576 24.688,4.576 C24.3466667,4.576 24.0693333,4.68533333 23.856,4.904 C23.6426667,5.12266667 23.536,5.456 23.536,5.904 L23.536,11.968 L22.352,11.968 L22.352,6.448 C22.352,5.744 22.28,5.256 22.136,4.984 C21.992,4.712 21.7333333,4.576 21.36,4.576 C21.0186667,4.576 20.7386667,4.68533333 20.52,4.904 C20.3013333,5.12266667 20.192,5.456 20.192,5.904 L20.192,11.968 L19.008,11.968 Z"
                    ></path>
                    <path
                        d="M32.688,12.16 C32.0906667,12.16 31.5546667,12.0586667 31.08,11.856 C30.6053333,11.6533333 30.2,11.3626667 29.864,10.984 C29.528,10.6053333 29.2693333,10.152 29.088,9.624 C28.9066667,9.096 28.816,8.50666667 28.816,7.856 C28.816,7.19466667 28.9093333,6.59733333 29.096,6.064 C29.2826667,5.53066667 29.5413333,5.07466667 29.872,4.696 C30.2026667,4.31733333 30.6,4.02666667 31.064,3.824 C31.528,3.62133333 32.0426667,3.52 32.608,3.52 C33.1626667,3.52 33.6666667,3.62133333 34.12,3.824 C34.5733333,4.02666667 34.96,4.30666667 35.28,4.664 C35.6,5.02133333 35.8453333,5.44533333 36.016,5.936 C36.1866667,6.42666667 36.272,6.96533333 36.272,7.552 L36.272,8.16 L30.16,8.16 L30.16,8.544 C30.16,8.90666667 30.2186667,9.24266667 30.336,9.552 C30.4533333,9.86133333 30.6213333,10.128 30.84,10.352 C31.0586667,10.576 31.3253333,10.7493333 31.64,10.872 C31.9546667,10.9946667 32.304,11.056 32.688,11.056 C33.2426667,11.056 33.7226667,10.928 34.128,10.672 C34.5333333,10.416 34.8426667,10.064 35.056,9.616 L36,10.256 C35.7546667,10.8106667 35.3466667,11.2666667 34.776,11.624 C34.2053333,11.9813333 33.5093333,12.16 32.688,12.16 Z M32.608,4.576 C32.256,4.576 31.9306667,4.64 31.632,4.768 C31.3333333,4.896 31.0746667,5.072 30.856,5.296 C30.6373333,5.52 30.4666667,5.784 30.344,6.088 C30.2213333,6.392 30.16,6.72533333 30.16,7.088 L30.16,7.2 L34.896,7.2 L34.896,7.024 C34.896,6.66133333 34.84,6.33066667 34.728,6.032 C34.616,5.73333333 34.4613333,5.47466667 34.264,5.256 C34.0666667,5.03733333 33.8266667,4.86933333 33.544,4.752 C33.2613333,4.63466667 32.9493333,4.576 32.608,4.576 Z"
                    ></path>
                    <path
                        d="M42.144,12.112 C41.7066667,12.112 41.4,12.0213333 41.224,11.84 C41.048,11.6586667 40.96,11.4293333 40.96,11.152 L40.96,10.864 C40.96,10.5866667 41.048,10.3573333 41.224,10.176 C41.4,9.99466667 41.7066667,9.904 42.144,9.904 C42.5813333,9.904 42.888,9.99466667 43.064,10.176 C43.24,10.3573333 43.328,10.5866667 43.328,10.864 L43.328,11.152 C43.328,11.4293333 43.24,11.6586667 43.064,11.84 C42.888,12.0213333 42.5813333,12.112 42.144,12.112 Z"
                    ></path>
                    <path
                        d="M48.464,3.712 L49.744,3.712 L49.744,5.056 L49.808,5.056 C50.3413333,4.032 51.1893333,3.52 52.352,3.52 C53.3653333,3.52 54.1573333,3.89866667 54.728,4.656 C55.2986667,5.41333333 55.584,6.47466667 55.584,7.84 C55.584,9.20533333 55.2986667,10.2666667 54.728,11.024 C54.1573333,11.7813333 53.3653333,12.16 52.352,12.16 C51.1893333,12.16 50.3413333,11.648 49.808,10.624 L49.744,10.624 L49.744,15.168 L48.464,15.168 L48.464,3.712 Z M51.856,11.024 C52.6026667,11.024 53.1813333,10.7973333 53.592,10.344 C54.0026667,9.89066667 54.208,9.29066667 54.208,8.544 L54.208,7.136 C54.208,6.38933333 54.0026667,5.78933333 53.592,5.336 C53.1813333,4.88266667 52.6026667,4.656 51.856,4.656 C51.568,4.656 51.296,4.69333333 51.04,4.768 C50.784,4.84266667 50.56,4.952 50.368,5.096 C50.176,5.24 50.024,5.416 49.912,5.624 C49.8,5.832 49.744,6.07466667 49.744,6.352 L49.744,9.328 C49.744,9.60533333 49.8,9.848 49.912,10.056 C50.024,10.264 50.176,10.44 50.368,10.584 C50.56,10.728 50.784,10.8373333 51.04,10.912 C51.296,10.9866667 51.568,11.024 51.856,11.024 Z"
                    ></path>
                    <path
                        d="M64.464,11.968 C63.9626667,11.968 63.6053333,11.84 63.392,11.584 C63.1786667,11.328 63.0453333,11.008 62.992,10.624 L62.912,10.624 C62.7306667,11.104 62.44,11.48 62.04,11.752 C61.64,12.024 61.104,12.16 60.432,12.16 C59.568,12.16 58.88,11.936 58.368,11.488 C57.856,11.04 57.6,10.4266667 57.6,9.648 C57.6,8.88 57.88,8.288 58.44,7.872 C59,7.456 59.904,7.248 61.152,7.248 L62.912,7.248 L62.912,6.432 C62.912,5.824 62.7413333,5.368 62.4,5.064 C62.0586667,4.76 61.5733333,4.608 60.944,4.608 C60.3893333,4.608 59.936,4.71733333 59.584,4.936 C59.232,5.15466667 58.9493333,5.45066667 58.736,5.824 L57.872,5.184 C57.9786667,4.97066667 58.1226667,4.76266667 58.304,4.56 C58.4853333,4.35733333 58.7093333,4.17866667 58.976,4.024 C59.2426667,3.86933333 59.5466667,3.74666667 59.888,3.656 C60.2293333,3.56533333 60.608,3.52 61.024,3.52 C61.9946667,3.52 62.7653333,3.76533333 63.336,4.256 C63.9066667,4.74666667 64.192,5.42933333 64.192,6.304 L64.192,10.848 L65.344,10.848 L65.344,11.968 L64.464,11.968 Z M60.656,11.088 C60.9866667,11.088 61.288,11.048 61.56,10.968 C61.832,10.888 62.0693333,10.7813333 62.272,10.648 C62.4746667,10.5146667 62.632,10.3546667 62.744,10.168 C62.856,9.98133333 62.912,9.78133333 62.912,9.568 L62.912,8.208 L61.152,8.208 C60.384,8.208 59.824,8.31466667 59.472,8.528 C59.12,8.74133333 58.944,9.05066667 58.944,9.456 L58.944,9.792 C58.944,10.2186667 59.096,10.5413333 59.4,10.76 C59.704,10.9786667 60.1226667,11.088 60.656,11.088 Z"
                    ></path>
                    <path
                        d="M67.376,10.88 L69.792,10.88 L69.792,4.8 L67.376,4.8 L67.376,3.712 L71.072,3.712 L71.072,5.792 L71.152,5.792 C71.3226667,5.14133333 71.6453333,4.632 72.12,4.264 C72.5946667,3.896 73.2,3.712 73.936,3.712 L75.088,3.712 L75.088,4.992 L73.536,4.992 C72.8,4.992 72.2053333,5.20533333 71.752,5.632 C71.2986667,6.05866667 71.072,6.61866667 71.072,7.312 L71.072,10.88 L74.272,10.88 L74.272,11.968 L67.376,11.968 L67.376,10.88 Z"
                    ></path>
                    <path
                        d="M83.664,11.968 C83.1626667,11.968 82.8053333,11.84 82.592,11.584 C82.3786667,11.328 82.2453333,11.008 82.192,10.624 L82.112,10.624 C81.9306667,11.104 81.64,11.48 81.24,11.752 C80.84,12.024 80.304,12.16 79.632,12.16 C78.768,12.16 78.08,11.936 77.568,11.488 C77.056,11.04 76.8,10.4266667 76.8,9.648 C76.8,8.88 77.08,8.288 77.64,7.872 C78.2,7.456 79.104,7.248 80.352,7.248 L82.112,7.248 L82.112,6.432 C82.112,5.824 81.9413333,5.368 81.6,5.064 C81.2586667,4.76 80.7733333,4.608 80.144,4.608 C79.5893333,4.608 79.136,4.71733333 78.784,4.936 C78.432,5.15466667 78.1493333,5.45066667 77.936,5.824 L77.072,5.184 C77.1786667,4.97066667 77.3226667,4.76266667 77.504,4.56 C77.6853333,4.35733333 77.9093333,4.17866667 78.176,4.024 C78.4426667,3.86933333 78.7466667,3.74666667 79.088,3.656 C79.4293333,3.56533333 79.808,3.52 80.224,3.52 C81.1946667,3.52 81.9653333,3.76533333 82.536,4.256 C83.1066667,4.74666667 83.392,5.42933333 83.392,6.304 L83.392,10.848 L84.544,10.848 L84.544,11.968 L83.664,11.968 Z M79.856,11.088 C80.1866667,11.088 80.488,11.048 80.76,10.968 C81.032,10.888 81.2693333,10.7813333 81.472,10.648 C81.6746667,10.5146667 81.832,10.3546667 81.944,10.168 C82.056,9.98133333 82.112,9.78133333 82.112,9.568 L82.112,8.208 L80.352,8.208 C79.584,8.208 79.024,8.31466667 78.672,8.528 C78.32,8.74133333 78.144,9.05066667 78.144,9.456 L78.144,9.792 C78.144,10.2186667 78.296,10.5413333 78.6,10.76 C78.904,10.9786667 79.3226667,11.088 79.856,11.088 Z"
                    ></path>
                    <path
                        d="M86.208,11.968 L86.208,3.712 L87.392,3.712 L87.392,4.672 L87.456,4.672 C87.584,4.352 87.7653333,4.08 88,3.856 C88.2346667,3.632 88.5813333,3.52 89.04,3.52 C89.52,3.52 89.8773333,3.64 90.112,3.88 C90.3466667,4.12 90.4906667,4.432 90.544,4.816 L90.592,4.816 C90.7413333,4.44266667 90.9546667,4.13333333 91.232,3.888 C91.5093333,3.64266667 91.8933333,3.52 92.384,3.52 C93.056,3.52 93.5066667,3.75466667 93.736,4.224 C93.9653333,4.69333333 94.08,5.36533333 94.08,6.24 L94.08,11.968 L92.896,11.968 L92.896,6.448 C92.896,5.744 92.824,5.256 92.68,4.984 C92.536,4.712 92.272,4.576 91.888,4.576 C91.5466667,4.576 91.2693333,4.68533333 91.056,4.904 C90.8426667,5.12266667 90.736,5.456 90.736,5.904 L90.736,11.968 L89.552,11.968 L89.552,6.448 C89.552,5.744 89.48,5.256 89.336,4.984 C89.192,4.712 88.9333333,4.576 88.56,4.576 C88.2186667,4.576 87.9386667,4.68533333 87.72,4.904 C87.5013333,5.12266667 87.392,5.456 87.392,5.904 L87.392,11.968 L86.208,11.968 Z"
                    ></path>
                    <path
                        d="M100.256,1.888 C99.8826667,1.888 99.6213333,1.81066667 99.472,1.656 C99.3226667,1.50133333 99.248,1.30666667 99.248,1.072 L99.248,0.816 C99.248,0.581333333 99.3226667,0.386666667 99.472,0.232 C99.6213333,0.0773333333 99.8826667,5.68434189e-14 100.256,5.68434189e-14 C100.629333,5.68434189e-14 100.890667,0.0773333333 101.04,0.232 C101.189333,0.386666667 101.264,0.581333333 101.264,0.816 L101.264,1.072 C101.264,1.30666667 101.189333,1.50133333 101.04,1.656 C100.890667,1.81066667 100.629333,1.888 100.256,1.888 Z M96.64,10.88 L99.616,10.88 L99.616,4.8 L96.64,4.8 L96.64,3.712 L100.896,3.712 L100.896,10.88 L103.68,10.88 L103.68,11.968 L96.64,11.968 L96.64,10.88 Z"
                    ></path>
                    <path
                        d="M109.344,12.112 C108.906667,12.112 108.6,12.0213333 108.424,11.84 C108.248,11.6586667 108.16,11.4293333 108.16,11.152 L108.16,10.864 C108.16,10.5866667 108.248,10.3573333 108.424,10.176 C108.6,9.99466667 108.906667,9.904 109.344,9.904 C109.781333,9.904 110.088,9.99466667 110.264,10.176 C110.44,10.3573333 110.528,10.5866667 110.528,10.864 L110.528,11.152 C110.528,11.4293333 110.44,11.6586667 110.264,11.84 C110.088,12.0213333 109.781333,12.112 109.344,12.112 Z"
                    ></path>
                    <path
                        d="M119.456,1.888 C119.082667,1.888 118.821333,1.81066667 118.672,1.656 C118.522667,1.50133333 118.448,1.30666667 118.448,1.072 L118.448,0.816 C118.448,0.581333333 118.522667,0.386666667 118.672,0.232 C118.821333,0.0773333333 119.082667,5.68434189e-14 119.456,5.68434189e-14 C119.829333,5.68434189e-14 120.090667,0.0773333333 120.24,0.232 C120.389333,0.386666667 120.464,0.581333333 120.464,0.816 L120.464,1.072 C120.464,1.30666667 120.389333,1.50133333 120.24,1.656 C120.090667,1.81066667 119.829333,1.888 119.456,1.888 Z M115.84,10.88 L118.816,10.88 L118.816,4.8 L115.84,4.8 L115.84,3.712 L120.096,3.712 L120.096,10.88 L122.88,10.88 L122.88,11.968 L115.84,11.968 L115.84,10.88 Z"
                    ></path>
                    <path
                        d="M128.544,12.16 C127.968,12.16 127.448,12.0586667 126.984,11.856 C126.52,11.6533333 126.125333,11.3626667 125.8,10.984 C125.474667,10.6053333 125.226667,10.152 125.056,9.624 C124.885333,9.096 124.8,8.50133333 124.8,7.84 C124.8,7.18933333 124.885333,6.59733333 125.056,6.064 C125.226667,5.53066667 125.474667,5.07466667 125.8,4.696 C126.125333,4.31733333 126.52,4.02666667 126.984,3.824 C127.448,3.62133333 127.968,3.52 128.544,3.52 C129.12,3.52 129.64,3.62133333 130.104,3.824 C130.568,4.02666667 130.962667,4.31733333 131.288,4.696 C131.613333,5.07466667 131.861333,5.53066667 132.032,6.064 C132.202667,6.59733333 132.288,7.18933333 132.288,7.84 C132.288,8.50133333 132.202667,9.096 132.032,9.624 C131.861333,10.152 131.613333,10.6053333 131.288,10.984 C130.962667,11.3626667 130.568,11.6533333 130.104,11.856 C129.64,12.0586667 129.12,12.16 128.544,12.16 Z M128.544,11.056 C129.258667,11.056 129.834667,10.8426667 130.272,10.416 C130.709333,9.98933333 130.928,9.328 130.928,8.432 L130.928,7.248 C130.928,6.352 130.709333,5.69066667 130.272,5.264 C129.834667,4.83733333 129.258667,4.624 128.544,4.624 C127.829333,4.624 127.253333,4.83733333 126.816,5.264 C126.378667,5.69066667 126.16,6.352 126.16,7.248 L126.16,8.432 C126.16,9.328 126.378667,9.98933333 126.816,10.416 C127.253333,10.8426667 127.829333,11.056 128.544,11.056 Z"
                    ></path>
                </g>
            </g>
        </g>
    </g>
</svg>