<svg viewBox="0 0 30 30" fill="none" xmlns="http://www.w3.org/2000/svg">
  <g id="Group 9">
    <g id="Group 79">
      <circle class="backgrond" cx="15" cy="15" r="15" fill="#F8F9F7" />
    </g>
    <g id="Group 129">
      <rect class="vector" x="15.2463" y="15" width="6.2111" height="5" fill="#DDDDDD" />
      <g id="Union">
        <path fill-rule="evenodd" clip-rule="evenodd"
          d="M8 8V16.9911L11.137 15.8641L10.7741 14.9374L9.03704 15.5385V9.00179H15.5963V10.6047H16.6333V8H8ZM18.5778 20.773L22 22.0001V11.7568H12.1482V20.773H18.5778ZM18.7593 19.7712H13.1852V12.7586H20.963V20.5476L18.7593 19.7712Z"
          fill="black" />
        <path
          d="M8 16.9911H7.75V17.3465L8.08453 17.2263L8 16.9911ZM8 8V7.75H7.75V8H8ZM11.137 15.8641L11.2216 16.0993L11.4636 16.0124L11.3698 15.7729L11.137 15.8641ZM10.7741 14.9374L11.0069 14.8462L10.9193 14.6226L10.6923 14.7011L10.7741 14.9374ZM9.03704 15.5385H8.78704V15.8895L9.11879 15.7747L9.03704 15.5385ZM9.03704 9.00179V8.75179H8.78704V9.00179H9.03704ZM15.5963 9.00179H15.8463V8.75179H15.5963V9.00179ZM15.5963 10.6047H15.3463V10.8547H15.5963V10.6047ZM16.6333 10.6047V10.8547H16.8833V10.6047H16.6333ZM16.6333 8H16.8833V7.75H16.6333V8ZM22 22.0001L21.9156 22.2355L22.25 22.3554V22.0001H22ZM18.5778 20.773L18.6622 20.5376L18.6213 20.523H18.5778V20.773ZM22 11.7568H22.25V11.5068H22V11.7568ZM12.1482 11.7568V11.5068H11.8982V11.7568H12.1482ZM12.1482 20.773H11.8982V21.023H12.1482V20.773ZM13.1852 19.7712H12.9352V20.0212H13.1852V19.7712ZM18.7593 19.7712L18.8423 19.5354L18.802 19.5212H18.7593V19.7712ZM13.1852 12.7586V12.5086H12.9352V12.7586H13.1852ZM20.963 12.7586H21.213V12.5086H20.963V12.7586ZM20.963 20.5476L20.8799 20.7833L21.213 20.9007V20.5476H20.963ZM8.25 16.9911V8H7.75V16.9911H8.25ZM11.0525 15.6288L7.91547 16.7558L8.08453 17.2263L11.2216 16.0993L11.0525 15.6288ZM10.5413 15.0286L10.9043 15.9552L11.3698 15.7729L11.0069 14.8462L10.5413 15.0286ZM9.11879 15.7747L10.8558 15.1737L10.6923 14.7011L8.95528 15.3022L9.11879 15.7747ZM8.78704 9.00179V15.5385H9.28704V9.00179H8.78704ZM15.5963 8.75179H9.03704V9.25179H15.5963V8.75179ZM15.8463 10.6047V9.00179H15.3463V10.6047H15.8463ZM16.6333 10.3547H15.5963V10.8547H16.6333V10.3547ZM16.3833 8V10.6047H16.8833V8H16.3833ZM8 8.25H16.6333V7.75H8V8.25ZM22.0844 21.7648L18.6622 20.5376L18.4934 21.0083L21.9156 22.2355L22.0844 21.7648ZM21.75 11.7568V22.0001H22.25V11.7568H21.75ZM12.1482 12.0068H22V11.5068H12.1482V12.0068ZM12.3982 20.773V11.7568H11.8982V20.773H12.3982ZM18.5778 20.523H12.1482V21.023H18.5778V20.523ZM13.1852 20.0212H18.7593V19.5212H13.1852V20.0212ZM12.9352 12.7586V19.7712H13.4352V12.7586H12.9352ZM20.963 12.5086H13.1852V13.0086H20.963V12.5086ZM21.213 20.5476V12.7586H20.713V20.5476H21.213ZM18.6762 20.007L20.8799 20.7833L21.046 20.3118L18.8423 19.5354L18.6762 20.007Z"
          fill="black" />
      </g>
    </g>
  </g>
</svg>