<svg viewBox="0 0 30 30" fill="none" xmlns="http://www.w3.org/2000/svg">
  <g id="Group 10">
    <g id="Group 79">
      <circle class="background" cx="15" cy="15" r="15" fill="#F8F9F7" />
    </g>
    <g id="Group 130">
      <path class="vector" fill-rule="evenodd" clip-rule="evenodd"
        d="M18.523 15.7773C18.9329 14.9752 19.4082 13.7491 19.4082 12.375C19.4082 9.95875 17.9388 8 17.9388 8C15.5718 8 13.6531 9.95875 13.6531 12.375C13.6531 14.0438 14.5683 15.4943 15.9144 16.2321L11.9388 18.4062V22H20.8776V18.4062L18.523 15.7773Z"
        fill="#DDDDDD" />
      <path id="Union_2"
        d="M17.8216 15.6681L17.3219 15.1088L16.53 15.8165L17.4618 16.3261L17.8216 15.6681ZM12.1784 15.6681L12.5382 16.3261L13.47 15.8165L12.6781 15.1088L12.1784 15.6681ZM9 17.4062L8.64014 16.7482L8.25 16.9616V17.4062H9ZM9 22H8.25V22.75H9V22ZM21 22V22.75H21.75V22H21ZM21 17.4062H21.75V16.9616L21.3599 16.7482L21 17.4062ZM18.5357 12.375C18.5357 13.4685 18.0646 14.4451 17.3219 15.1088L18.3214 16.2273C19.3734 15.2872 20.0357 13.9078 20.0357 12.375H18.5357ZM15 8.75C16.9382 8.75 18.5357 10.3583 18.5357 12.375H20.0357C20.0357 9.55919 17.7957 7.25 15 7.25V8.75ZM11.4643 12.375C11.4643 10.3583 13.0618 8.75 15 8.75V7.25C12.2043 7.25 9.96429 9.55919 9.96429 12.375H11.4643ZM12.6781 15.1088C11.9354 14.4451 11.4643 13.4685 11.4643 12.375H9.96429C9.96429 13.9078 10.6266 15.2872 11.6786 16.2273L12.6781 15.1088ZM9.35986 18.0643L12.5382 16.3261L11.8185 15.0101L8.64014 16.7482L9.35986 18.0643ZM9.75 22V17.4062H8.25V22H9.75ZM21 21.25H9V22.75H21V21.25ZM20.25 17.4062V22H21.75V17.4062H20.25ZM17.4618 16.3261L20.6401 18.0643L21.3599 16.7482L18.1815 15.0101L17.4618 16.3261Z"
        fill="black" />
      <line id="Line 24" x1="15.2296" y1="22" x2="15.2296" y2="18" stroke="black" stroke-width="1.5" />
    </g>
  </g>
</svg>