<svg viewBox="0 0 30 30" fill="none" xmlns="http://www.w3.org/2000/svg">
  <g id="Group 8">
    <g id="Group 79">
      <circle class="background" cx="15" cy="15" r="15" fill="#F8F9F7" />
      <g id="Group 128">
        <path class="vector"
          d="M10.25 14.9998C10.25 16.2595 10.7504 17.4677 11.6412 18.3585C12.532 19.2493 13.7402 19.7498 15 19.7498C16.2598 19.7498 17.468 19.2493 18.3588 18.3585C19.2496 17.4677 19.75 16.2595 19.75 14.9998C19.75 13.74 19.2496 12.5318 18.3588 11.641C17.468 10.7502 16.2598 10.2498 15 10.2498C13.7402 10.2498 12.532 10.7502 11.6412 11.641C10.7504 12.5318 10.25 13.74 10.25 14.9998Z"
          fill="#DDDDDD" />
        <g id="Union">
          <path fill-rule="evenodd" clip-rule="evenodd"
            d="M8.00006 15C8.00006 18.85 11.15 22 15 22C18.85 22 22 18.85 22 15C22 11.15 18.85 8 15 8C11.15 8 8.00006 11.15 8.00006 15ZM8.91006 15C8.91006 11.64 11.64 8.91 15 8.91C18.36 8.91 21.09 11.64 21.09 15C21.09 18.36 18.36 21.09 15 21.09C11.64 21.09 8.91006 18.36 8.91006 15ZM11.99 15L15 18.01L18.01 15L15 11.99L11.99 15ZM15 16.75L13.25 15L15 13.25L16.75 15L15 16.75Z"
            fill="black" />
          <path
            d="M15 18.01L14.8232 18.1868L15 18.3636L15.1768 18.1868L15 18.01ZM11.99 15L11.8133 14.8232L11.6365 15L11.8133 15.1768L11.99 15ZM18.01 15L18.1868 15.1768L18.3636 15L18.1868 14.8232L18.01 15ZM15 11.99L15.1768 11.8132L15 11.6364L14.8232 11.8132L15 11.99ZM13.25 15L13.0732 14.8232L12.8965 15L13.0732 15.1768L13.25 15ZM15 16.75L14.8232 16.9268L15 17.1036L15.1768 16.9268L15 16.75ZM15 13.25L15.1768 13.0732L15 12.8964L14.8232 13.0732L15 13.25ZM16.75 15L16.9268 15.1768L17.1036 15L16.9268 14.8232L16.75 15ZM15 21.75C11.2881 21.75 8.25006 18.7119 8.25006 15H7.75006C7.75006 18.9881 11.012 22.25 15 22.25V21.75ZM21.75 15C21.75 18.7119 18.7119 21.75 15 21.75V22.25C18.9881 22.25 22.25 18.9881 22.25 15H21.75ZM15 8.25C18.7119 8.25 21.75 11.2881 21.75 15H22.25C22.25 11.0119 18.9881 7.75 15 7.75V8.25ZM8.25006 15C8.25006 11.2881 11.2881 8.25 15 8.25V7.75C11.012 7.75 7.75006 11.0119 7.75006 15H8.25006ZM15 8.66C11.502 8.66 8.66006 11.5019 8.66006 15H9.16006C9.16006 11.7781 11.7781 9.16 15 9.16V8.66ZM21.34 15C21.34 11.5019 18.4981 8.66 15 8.66V9.16C18.2219 9.16 20.84 11.7781 20.84 15H21.34ZM15 21.34C18.4981 21.34 21.34 18.4981 21.34 15H20.84C20.84 18.2219 18.2219 20.84 15 20.84V21.34ZM8.66006 15C8.66006 18.4981 11.502 21.34 15 21.34V20.84C11.7781 20.84 9.16006 18.2219 9.16006 15H8.66006ZM15.1768 17.8332L12.1668 14.8232L11.8133 15.1768L14.8232 18.1868L15.1768 17.8332ZM17.8332 14.8232L14.8232 17.8332L15.1768 18.1868L18.1868 15.1768L17.8332 14.8232ZM14.8232 12.1668L17.8332 15.1768L18.1868 14.8232L15.1768 11.8132L14.8232 12.1668ZM12.1668 15.1768L15.1768 12.1668L14.8232 11.8132L11.8133 14.8232L12.1668 15.1768ZM13.0732 15.1768L14.8232 16.9268L15.1768 16.5732L13.4268 14.8232L13.0732 15.1768ZM14.8232 13.0732L13.0732 14.8232L13.4268 15.1768L15.1768 13.4268L14.8232 13.0732ZM16.9268 14.8232L15.1768 13.0732L14.8232 13.4268L16.5732 15.1768L16.9268 14.8232ZM15.1768 16.9268L16.9268 15.1768L16.5732 14.8232L14.8232 16.5732L15.1768 16.9268Z"
            fill="black" />
        </g>
      </g>
    </g>
  </g>
</svg>