<?xml version="1.0" encoding="UTF-8" ?>
<!DOCTYPE svg PUBLIC "-//W3C//DTD SVG 1.1//EN" "http://www.w3.org/Graphics/SVG/1.1/DTD/svg11.dtd">
<svg width="1024pt" height="1024pt" viewBox="0 0 1024 1024" version="1.1" xmlns="http://www.w3.org/2000/svg">
<g id="#eafd53ff">
<path fill="#eafd53" opacity="1.00" d=" M 0.00 0.00 L 1024.00 0.00 L 1024.00 1024.00 L 0.00 1024.00 L 0.00 0.00 M 512.00 111.99 C 511.99 135.03 512.02 158.06 511.99 181.09 C 490.61 159.80 469.34 138.41 447.95 117.12 C 417.73 122.06 388.07 130.42 359.75 142.07 C 410.53 192.71 461.14 243.53 511.94 294.15 C 512.08 329.04 511.96 363.94 512.00 398.84 C 438.46 325.34 364.99 251.78 291.43 178.31 C 269.05 193.15 248.25 210.28 229.16 229.15 C 323.45 323.44 417.73 417.73 512.02 512.01 C 488.36 511.99 464.70 512.00 441.04 512.00 C 428.85 512.16 416.62 511.68 404.44 512.24 C 398.36 519.18 391.44 525.37 385.03 532.02 C 316.95 600.10 248.87 668.19 180.78 736.27 C 195.92 758.42 213.15 779.14 232.34 797.89 C 325.49 704.58 418.84 611.46 511.96 518.11 C 512.04 551.68 512.00 585.24 511.99 618.81 C 437.17 693.59 362.37 768.39 287.59 843.20 C 310.81 858.65 335.40 872.11 361.28 882.54 C 411.62 832.43 461.74 782.11 512.00 731.92 C 512.04 768.12 511.93 804.32 512.05 840.51 C 490.12 862.62 468.05 884.60 446.00 906.60 C 467.81 910.16 489.90 911.97 512.00 912.01 C 512.01 888.96 512.00 865.92 512.00 842.87 C 533.36 864.20 554.66 885.58 576.04 906.88 C 606.25 901.94 635.90 893.61 664.20 881.94 C 613.48 831.19 562.74 780.47 512.01 729.74 C 511.99 693.35 512.00 656.96 512.00 620.58 C 586.44 695.03 660.89 769.46 735.33 843.92 C 757.48 828.77 778.25 811.62 797.10 792.52 C 703.57 699.03 610.08 605.49 516.55 511.99 C 550.63 512.02 584.71 511.97 618.79 512.02 C 693.56 586.83 768.38 661.61 843.18 736.40 C 858.69 713.21 872.09 688.59 882.54 662.71 C 832.42 612.38 782.11 562.25 731.91 512.00 C 695.40 512.00 658.90 512.01 622.39 511.99 C 696.44 437.90 770.54 363.85 844.59 289.76 C 829.63 267.48 812.40 246.78 793.47 227.76 C 699.64 321.56 605.85 415.39 512.02 509.19 C 511.97 474.53 512.01 439.88 512.00 405.23 C 586.79 330.42 661.61 255.64 736.39 180.82 C 713.22 165.31 688.60 151.92 662.74 141.47 C 612.39 191.56 562.27 241.89 512.01 292.07 C 512.00 255.82 511.99 219.57 512.01 183.32 C 534.03 161.37 555.94 139.32 578.00 117.40 C 556.19 113.85 534.10 112.03 512.00 111.99 M 141.46 361.29 C 191.57 411.62 241.89 461.75 292.08 512.00 C 256.18 512.14 220.23 511.73 184.36 512.20 C 162.06 534.40 139.78 556.64 117.61 578.97 C 122.70 609.05 131.36 638.49 143.01 666.67 C 193.55 615.99 244.25 565.45 294.81 514.79 C 296.07 513.76 297.02 511.78 298.91 512.00 C 331.93 512.00 364.95 512.00 397.97 512.00 C 400.19 511.84 402.80 512.78 404.63 511.08 C 399.15 506.33 394.31 500.89 389.09 495.87 C 319.67 426.44 250.26 357.00 180.83 287.59 C 165.32 310.78 151.90 335.40 141.46 361.29 M 732.40 512.00 C 769.30 512.00 806.20 512.00 843.10 512.00 C 844.73 511.71 845.62 513.34 846.69 514.25 C 866.79 534.49 887.06 554.54 907.13 574.80 C 910.30 554.02 911.99 533.02 912.00 512.00 C 889.85 511.99 867.71 512.01 845.56 512.00 C 866.09 491.35 886.83 470.89 907.26 450.15 C 902.41 419.87 894.27 390.09 882.71 361.67 C 832.63 411.80 782.49 461.88 732.40 512.00 M 111.99 512.00 C 135.77 512.00 159.54 512.01 183.32 511.99 C 161.38 489.96 139.31 468.07 117.41 446.00 C 113.83 467.81 112.03 489.90 111.99 512.00 Z" />
</g>
<g id="#000000ff">
<path fill="#000000" opacity="1.00" d=" M 512.00 111.99 C 534.10 112.03 556.19 113.85 578.00 117.40 C 555.94 139.32 534.03 161.37 512.01 183.32 C 511.99 219.57 512.00 255.82 512.01 292.07 C 562.27 241.89 612.39 191.56 662.74 141.47 C 688.60 151.92 713.22 165.31 736.39 180.82 C 661.61 255.64 586.79 330.42 512.00 405.23 C 512.01 439.88 511.97 474.53 512.02 509.19 C 605.85 415.39 699.64 321.56 793.47 227.76 C 812.40 246.78 829.63 267.48 844.59 289.76 C 770.54 363.85 696.44 437.90 622.39 511.99 C 658.90 512.01 695.40 512.00 731.91 512.00 C 782.11 562.25 832.42 612.38 882.54 662.71 C 872.09 688.59 858.69 713.21 843.18 736.40 C 768.38 661.61 693.56 586.83 618.79 512.02 C 584.71 511.97 550.63 512.02 516.55 511.99 C 610.08 605.49 703.57 699.03 797.10 792.52 C 778.25 811.62 757.48 828.77 735.33 843.92 C 660.89 769.46 586.44 695.03 512.00 620.58 C 512.00 656.96 511.99 693.35 512.01 729.74 C 562.74 780.47 613.48 831.19 664.20 881.94 C 635.90 893.61 606.25 901.94 576.04 906.88 C 554.66 885.58 533.36 864.20 512.00 842.87 C 512.00 865.92 512.01 888.96 512.00 912.01 C 489.90 911.97 467.81 910.16 446.00 906.60 C 468.05 884.60 490.12 862.62 512.05 840.51 C 511.93 804.32 512.04 768.12 512.00 731.92 C 461.74 782.11 411.62 832.43 361.28 882.54 C 335.40 872.11 310.81 858.65 287.59 843.20 C 362.37 768.39 437.17 693.59 511.99 618.81 C 512.00 585.24 512.04 551.68 511.96 518.11 C 418.84 611.46 325.49 704.58 232.34 797.89 C 213.15 779.14 195.92 758.42 180.78 736.27 C 248.87 668.19 316.95 600.10 385.03 532.02 C 391.44 525.37 398.36 519.18 404.44 512.24 C 416.62 511.68 428.85 512.16 441.04 512.00 C 464.70 512.00 488.36 511.99 512.02 512.01 C 417.73 417.73 323.45 323.44 229.16 229.15 C 248.25 210.28 269.05 193.15 291.43 178.31 C 364.99 251.78 438.46 325.34 512.00 398.84 C 511.96 363.94 512.08 329.04 511.94 294.15 C 461.14 243.53 410.53 192.71 359.75 142.07 C 388.07 130.42 417.73 122.06 447.95 117.12 C 469.34 138.41 490.61 159.80 511.99 181.09 C 512.02 158.06 511.99 135.03 512.00 111.99 Z" />
<path fill="#000000" opacity="1.00" d=" M 141.46 361.29 C 151.90 335.40 165.32 310.78 180.83 287.59 C 250.26 357.00 319.67 426.44 389.09 495.87 C 394.31 500.89 399.15 506.33 404.63 511.08 C 402.80 512.78 400.19 511.84 397.97 512.00 C 364.95 512.00 331.93 512.00 298.91 512.00 C 297.02 511.78 296.07 513.76 294.81 514.79 C 244.25 565.45 193.55 615.99 143.01 666.67 C 131.36 638.49 122.70 609.05 117.61 578.97 C 139.78 556.64 162.06 534.40 184.36 512.20 C 220.23 511.73 256.18 512.14 292.08 512.00 C 241.89 461.75 191.57 411.62 141.46 361.29 Z" />
<path fill="#000000" opacity="1.00" d=" M 732.40 512.00 C 782.49 461.88 832.63 411.80 882.71 361.67 C 894.27 390.09 902.41 419.87 907.26 450.15 C 886.83 470.89 866.09 491.35 845.56 512.00 C 867.71 512.01 889.85 511.99 912.00 512.00 C 911.99 533.02 910.30 554.02 907.13 574.80 C 887.06 554.54 866.79 534.49 846.69 514.25 C 845.62 513.34 844.73 511.71 843.10 512.00 C 806.20 512.00 769.30 512.00 732.40 512.00 Z" />
<path fill="#000000" opacity="1.00" d=" M 111.99 512.00 C 112.03 489.90 113.83 467.81 117.41 446.00 C 139.31 468.07 161.38 489.96 183.32 511.99 C 159.54 512.01 135.77 512.00 111.99 512.00 Z" />
</g>
</svg>
