<svg width="375" height="114" viewBox="0 0 375 114" fill="none" xmlns="http://www.w3.org/2000/svg">
<path fill-rule="evenodd" clip-rule="evenodd" d="M364 4C366.209 4 368 2.20917 368 0H375V114H0V0H8C8 2.20917 9.79086 4 12 4C14.2091 4 16 2.20917 16 0H24C24 2.20917 25.7909 4 28 4C30.2091 4 32 2.20917 32 0H40C40 2.20917 41.7909 4 44 4C46.2091 4 48 2.20917 48 0H56C56 2.20917 57.7909 4 60 4C62.2091 4 64 2.20917 64 0H72C72 2.20917 73.7909 4 76 4C78.2091 4 80 2.20917 80 0H88C88 2.20917 89.7909 4 92 4C94.2091 4 96 2.20917 96 0H104C104 2.20917 105.791 4 108 4C110.209 4 112 2.20917 112 0H120C120 2.20917 121.791 4 124 4C126.209 4 128 2.20917 128 0H136C136 2.20917 137.791 4 140 4C142.209 4 144 2.20917 144 0H152C152 2.20917 153.791 4 156 4C158.209 4 160 2.20917 160 0H168C168 2.20917 169.791 4 172 4C174.209 4 176 2.20917 176 0H184C184 2.20917 185.791 4 188 4C190.209 4 192 2.20917 192 0H200C200 2.20917 201.791 4 204 4C206.209 4 208 2.20917 208 0H216C216 2.20917 217.791 4 220 4C222.209 4 224 2.20917 224 0H232C232 2.20917 233.791 4 236 4C238.209 4 240 2.20917 240 0H248C248 2.20917 249.791 4 252 4C254.209 4 256 2.20917 256 0H264C264 2.20917 265.791 4 268 4C270.209 4 272 2.20917 272 0H280C280 2.20917 281.791 4 284 4C286.209 4 288 2.20917 288 0H296C296 2.20917 297.791 4 300 4C302.209 4 304 2.20917 304 0H312C312 2.20917 313.791 4 316 4C318.209 4 320 2.20917 320 0H328C328 2.20917 329.791 4 332 4C334.209 4 336 2.20917 336 0H344C344 2.20917 345.791 4 348 4C350.209 4 352 2.20917 352 0H360C360 2.20917 361.791 4 364 4Z" fill="#EAFD53"/>
</svg>
