<svg width="115" height="28" viewBox="0 0 115 28" fill="none" xmlns="http://www.w3.org/2000/svg">
<rect width="28" height="28" rx="8" fill="#EAFD53"/>
<mask id="mask0_282_1590" style="mask-type:luminance" maskUnits="userSpaceOnUse" x="14" y="3" width="11" height="11">
<path fill-rule="evenodd" clip-rule="evenodd" d="M24.9375 14C24.9375 7.95939 20.0406 3.0625 14 3.0625V14H24.9375Z" fill="white"/>
</mask>
<g mask="url(#mask0_282_1590)">
<rect x="17.4819" y="-1.56226" width="2.1875" height="12.1875" transform="rotate(45 17.4819 -1.56226)" fill="black"/>
<rect x="19.1516" y="2.83496" width="2.1875" height="9.6875" transform="rotate(45 19.1516 2.83496)" fill="black"/>
<rect x="22.3904" y="5.53369" width="2.1875" height="12.1875" transform="rotate(45 22.3904 5.53369)" fill="black"/>
<rect x="25.9929" y="8.03369" width="2.1875" height="12.1875" transform="rotate(45 25.9929 8.03369)" fill="black"/>
</g>
<mask id="mask1_282_1590" style="mask-type:luminance" maskUnits="userSpaceOnUse" x="3" y="14" width="11" height="11">
<path fill-rule="evenodd" clip-rule="evenodd" d="M3.0625 14C3.0625 20.0406 7.95939 24.9375 14 24.9375V14H3.0625Z" fill="white"/>
</mask>
<g mask="url(#mask1_282_1590)">
<rect x="10.5181" y="29.5623" width="2.1875" height="12.1875" transform="rotate(-135 10.5181 29.5623)" fill="black"/>
<rect x="8.84839" y="25.165" width="2.1875" height="9.6875" transform="rotate(-135 8.84839 25.165)" fill="black"/>
<rect x="5.70312" y="22.4663" width="2.1875" height="12.1875" transform="rotate(-135 5.70312 22.4663)" fill="black"/>
<rect x="2.17212" y="19.9663" width="2.1875" height="12.1875" transform="rotate(-135 2.17212 19.9663)" fill="black"/>
</g>
<mask id="mask2_282_1590" style="mask-type:luminance" maskUnits="userSpaceOnUse" x="3" y="3" width="11" height="11">
<path fill-rule="evenodd" clip-rule="evenodd" d="M3.0625 14C3.0625 7.95939 7.95939 3.0625 14 3.0625V14H3.0625Z" fill="white"/>
</mask>
<g mask="url(#mask2_282_1590)">
<rect width="2.1875" height="12.1875" transform="matrix(-0.707107 0.707107 0.707107 0.707107 9.35962 0.3125)" fill="black"/>
<rect width="2.1875" height="12.1875" transform="matrix(-0.707107 0.707107 0.707107 0.707107 7.46875 4.375)" fill="black"/>
<rect width="2.1875" height="12.1875" transform="matrix(-0.707107 0.707107 0.707107 0.707107 4.58057 7.50024)" fill="black"/>
<rect width="1.875" height="12.1875" transform="matrix(-0.707107 0.707107 0.707107 0.707107 1.85962 10.8462)" fill="black"/>
</g>
<mask id="mask3_282_1590" style="mask-type:luminance" maskUnits="userSpaceOnUse" x="14" y="14" width="11" height="11">
<path fill-rule="evenodd" clip-rule="evenodd" d="M24.9375 14C24.9375 20.0406 20.0406 24.9375 14 24.9375V14H24.9375Z" fill="white"/>
</mask>
<g mask="url(#mask3_282_1590)">
<rect width="2.1875" height="12.1875" transform="matrix(0.707107 -0.707107 -0.707107 -0.707107 18.6404 27.6875)" fill="black"/>
<rect width="2.1875" height="12.1875" transform="matrix(0.707107 -0.707107 -0.707107 -0.707107 20.5312 23.5)" fill="black"/>
<rect width="2.1875" height="12.1875" transform="matrix(0.707107 -0.707107 -0.707107 -0.707107 23.4194 20.4998)" fill="black"/>
<rect width="1.875" height="12.1875" transform="matrix(0.707107 -0.707107 -0.707107 -0.707107 26.2429 17.1538)" fill="black"/>
</g>
<path d="M38.7031 21L43.5957 6.9082H47.0625L51.9648 21H48.8594L47.8145 17.582H42.8438L41.7988 21H38.7031ZM45.2461 9.7207L43.5176 15.375H47.1406L45.4219 9.7207H45.2461ZM54.3574 21V6.9082H57.3066V21H54.3574ZM60.7246 21V6.9082H64.1035L68 17.2207H68.1758L72.0625 6.9082H75.4414V21H72.8145V11.4102H72.6191L69.0059 21H67.1602L63.5469 11.4102H63.3516V21H60.7246ZM78.8691 21V6.9082H88.2051V9.33984H81.8184V12.7383H87.8438V15.0039H81.8184V18.5684H88.2051V21H78.8691Z" fill="white"/>
</svg>
